<?xml version="1.0" encoding="UTF-8" standalone="no"?>
<svg width="290px" height="244px" viewBox="0 0 290 244" version="1.1" xmlns="http://www.w3.org/2000/svg" xmlns:xlink="http://www.w3.org/1999/xlink" xmlns:sketch="http://www.bohemiancoding.com/sketch/ns">
    <g stroke="none" fill="none">
                <rect fill="#000000" sketch:type="MSShapeGroup" x="20" y="0" width="10" height="172"></rect>
                <rect fill="#000000" sketch:type="MSShapeGroup" x="260" y="0" width="10" height="172"></rect>
                <rect fill="#000000" sketch:type="MSShapeGroup" x="30" y="0" width="230" height="10"></rect>
                <rect fill="#000000" sketch:type="MSShapeGroup" x="30" y="162" width="230" height="10"></rect>
                <path d="M20,177 L270,177 L290,229 L0,229 L20,177 Z M27,187 L263,187 L275,219 L15,219 L27,187 Z" fill="#000000"></path>
                <rect fill="#000000" x="0" y="234" width="290" height="10"></rect>
                <rect fill="#06CC71" x="40" y="20" width="210" height="132"></rect>
                <path d="M116.712,83.44 L113.608,83.44 L111.72,89.216 L111.032,91.584 L111,91.584 L110.328,89.2 L108.424,83.44 L105.224,83.44 L105.224,94 L107.224,94 L107.224,88.496 L107.112,85.408 L107.144,85.408 L110.056,94 L111.864,94 L114.792,85.408 L114.824,85.408 L114.728,88.496 L114.728,94 L116.712,94 L116.712,83.44 Z M122.824,85.84 C120.248,85.84 118.728,87.392 118.728,90 C118.728,92.608 120.248,94.16 122.824,94.16 C125.4,94.16 126.92,92.608 126.92,90 C126.92,87.392 125.4,85.84 122.824,85.84 L122.824,85.84 Z M122.824,87.472 C124.056,87.472 124.728,88.304 124.728,90 C124.728,91.696 124.056,92.528 122.824,92.528 C121.592,92.528 120.92,91.696 120.92,90 C120.92,88.304 121.592,87.472 122.824,87.472 L122.824,87.472 Z M133.336,85.84 C132.088,85.84 131.272,86.464 130.856,87.568 L130.712,86 L128.808,86 L128.808,94 L131,94 L131,89.856 C131,88.4 131.96,87.696 132.92,87.696 C133.336,87.696 133.704,87.792 133.928,87.936 L134.2,86.016 C134.008,85.904 133.688,85.84 133.336,85.84 L133.336,85.84 Z M142.872,89.968 C142.872,87.344 141.512,85.84 139.016,85.84 C136.44,85.84 134.984,87.376 134.984,90 C134.984,92.624 136.488,94.16 139.144,94.16 C140.952,94.16 142.184,93.472 142.696,92.192 L140.904,91.536 C140.68,92.176 140.072,92.528 139.144,92.528 C138.072,92.528 137.368,91.984 137.144,90.832 L142.808,90.832 C142.84,90.624 142.872,90.192 142.872,89.968 L142.872,89.968 Z M139,87.456 C140.008,87.456 140.68,88.096 140.856,89.296 L137.128,89.296 C137.304,88.08 137.944,87.456 139,87.456 L139,87.456 Z M152.712,94.16 C155.096,94.16 156.36,93.12 156.36,91.68 C156.36,90.352 155.496,89.648 153.16,89.184 C151.816,88.912 151.416,88.64 151.416,88.208 C151.416,87.792 151.96,87.44 152.856,87.44 C153.928,87.44 154.568,87.856 155.032,88.688 L156.392,87.536 C155.656,86.384 154.664,85.84 152.824,85.84 C150.456,85.84 149.224,87.12 149.224,88.416 C149.224,89.744 150.056,90.512 152.552,91.008 C153.72,91.248 154.152,91.472 154.152,91.84 C154.152,92.272 153.624,92.56 152.68,92.56 C151.592,92.56 150.728,92.272 150.28,91.312 L149,92.624 C149.736,93.712 151.064,94.16 152.712,94.16 L152.712,94.16 Z M161.752,85.84 C159.176,85.84 157.656,87.392 157.656,90 C157.656,92.608 159.176,94.16 161.752,94.16 C164.328,94.16 165.848,92.608 165.848,90 C165.848,87.392 164.328,85.84 161.752,85.84 L161.752,85.84 Z M161.752,87.472 C162.984,87.472 163.656,88.304 163.656,90 C163.656,91.696 162.984,92.528 161.752,92.528 C160.52,92.528 159.848,91.696 159.848,90 C159.848,88.304 160.52,87.472 161.752,87.472 L161.752,87.472 Z M171.416,85.84 C168.84,85.84 167.32,87.392 167.32,90 C167.32,92.608 168.84,94.16 171.416,94.16 C173.992,94.16 175.512,92.608 175.512,90 C175.512,87.392 173.992,85.84 171.416,85.84 L171.416,85.84 Z M171.416,87.472 C172.648,87.472 173.32,88.304 173.32,90 C173.32,91.696 172.648,92.528 171.416,92.528 C170.184,92.528 169.512,91.696 169.512,90 C169.512,88.304 170.184,87.472 171.416,87.472 L171.416,87.472 Z M182.168,85.84 C180.968,85.84 179.976,86.352 179.432,87.424 L179.368,86 L177.4,86 L177.4,94 L179.592,94 L179.592,89.776 C179.592,88.176 180.504,87.568 181.432,87.568 C182.264,87.568 182.856,88.016 182.856,89.392 L182.856,94 L185.048,94 L185.048,88.752 C185.048,86.816 183.832,85.84 182.168,85.84 L182.168,85.84 Z" fill="#FFFFFF"></path>
    </g>
</svg>