<?xml version="1.0" encoding="UTF-8" standalone="no"?>
<svg width="160px" height="244px" viewBox="0 0 160 244" version="1.1" xmlns="http://www.w3.org/2000/svg" xmlns:xlink="http://www.w3.org/1999/xlink" xmlns:sketch="http://www.bohemiancoding.com/sketch/ns">
    <!-- Generator: Sketch 3.3.2 (12043) - http://www.bohemiancoding.com/sketch -->
    <title>post-pc</title>
    <desc>Created with Sketch.</desc>
    <defs></defs>
    <g id="Page-1" stroke="none" stroke-width="1" fill="none" fill-rule="evenodd" sketch:type="MSPage">
        <g id="Artboard-4" sketch:type="MSArtboardGroup" transform="translate(-132.000000, -88.000000)">
            <g id="post-pc" sketch:type="MSLayerGroup" transform="translate(132.000000, 88.000000)">
                <path d="M0,0 L160,0 L160,244 L0,244 L0,0 Z M10,10 L150,10 L150,234 L10,234 L10,10 Z" id="Rectangle-1-Copy-2" fill="#000000" sketch:type="MSShapeGroup"></path>
                <circle id="Oval-1" fill="#000000" sketch:type="MSShapeGroup" cx="80" cy="216" r="10"></circle>
                <rect id="Rectangle-5" fill="#F9D202" sketch:type="MSShapeGroup" x="20" y="20" width="120" height="178"></rect>
                <polygon id="Polygon-1" fill="#FFFFFF" sketch:type="MSShapeGroup" transform="translate(80.000000, 89.000000) rotate(-20.000000) translate(-80.000000, -89.000000) " points="80 64 103.776413 81.2745751 94.6946313 109.225425 65.3053687 109.225425 56.2235871 81.2745751 "></polygon>
                <path d="M63.384,155.216 L63.384,153.44 L55.48,153.44 L55.48,164 L57.688,164 L57.688,159.68 L62.184,159.68 L62.184,157.888 L57.688,157.888 L57.688,155.216 L63.384,155.216 Z M71.592,162.672 C71.176,162.672 71,162.48 71,162.064 L71,158.784 C71,156.8 69.592,155.84 67.368,155.84 C65.416,155.84 64.216,156.704 63.88,158.064 L65.624,158.8 C65.864,157.792 66.536,157.44 67.464,157.44 C68.328,157.44 68.824,157.984 68.824,158.832 L68.824,159.216 L66.904,159.584 C64.76,159.984 63.784,160.864 63.784,162.112 C63.784,163.456 64.744,164.16 66.264,164.16 C67.608,164.16 68.616,163.744 69.096,162.96 C69.32,163.824 69.976,164.16 70.936,164.16 C71.336,164.16 71.688,164.08 71.976,163.936 L72.136,162.608 C71.976,162.656 71.784,162.672 71.592,162.672 L71.592,162.672 Z M66.952,162.672 C66.376,162.672 66.04,162.4 66.04,161.888 C66.04,161.36 66.408,161.104 67.112,160.944 L68.824,160.56 L68.824,161.392 C68.824,162.24 67.784,162.672 66.952,162.672 L66.952,162.672 Z M75.624,152.496 L73.432,152.496 L73.432,161.776 C73.432,163.44 74.12,164.16 75.672,164.16 C76.2,164.16 76.808,164.032 77.16,163.824 L77.352,162.304 C77,162.432 76.776,162.48 76.408,162.48 C75.816,162.48 75.624,162.208 75.624,161.456 L75.624,152.496 Z M80.728,152.496 L78.536,152.496 L78.536,161.776 C78.536,163.44 79.224,164.16 80.776,164.16 C81.304,164.16 81.912,164.032 82.264,163.824 L82.456,162.304 C82.104,162.432 81.88,162.48 81.512,162.48 C80.92,162.48 80.728,162.208 80.728,161.456 L80.728,152.496 Z M84.776,154.848 C85.688,154.848 86.136,154.464 86.136,153.68 C86.136,152.896 85.688,152.496 84.776,152.496 C83.864,152.496 83.416,152.896 83.416,153.68 C83.416,154.464 83.864,154.848 84.776,154.848 L84.776,154.848 Z M85.864,156 L83.672,156 L83.672,164 L85.864,164 L85.864,156 Z M92.952,155.84 C91.752,155.84 90.76,156.352 90.216,157.424 L90.152,156 L88.184,156 L88.184,164 L90.376,164 L90.376,159.776 C90.376,158.176 91.288,157.568 92.216,157.568 C93.048,157.568 93.64,158.016 93.64,159.392 L93.64,164 L95.832,164 L95.832,158.752 C95.832,156.816 94.616,155.84 92.952,155.84 L92.952,155.84 Z M102.952,162.496 L100.248,162.496 C99.688,162.496 99.336,162.272 99.336,161.84 C99.336,161.472 99.512,161.232 99.96,161.12 C100.392,161.216 100.872,161.264 101.4,161.264 C103.688,161.264 105.08,160.224 105.08,158.56 C105.08,157.616 104.648,156.88 103.864,156.416 C104.104,155.888 104.728,155.568 105.736,155.664 L105.448,154.096 C104.008,154.016 103.272,154.864 103.016,156.048 C102.552,155.92 102.008,155.84 101.4,155.84 C99.128,155.84 97.736,156.88 97.736,158.56 C97.736,159.52 98.168,160.272 98.984,160.736 C98.232,161.008 97.72,161.552 97.72,162.352 C97.72,163.136 98.232,163.664 98.904,163.952 C97.912,164.192 97.448,164.768 97.448,165.472 C97.448,166.64 98.616,167.44 101.384,167.44 C103.896,167.44 105.688,166.464 105.688,164.72 C105.688,163.28 104.68,162.496 102.952,162.496 L102.952,162.496 Z M101.4,157.216 C102.264,157.216 102.872,157.744 102.872,158.544 C102.872,159.36 102.264,159.888 101.4,159.888 C100.552,159.888 99.944,159.36 99.944,158.544 C99.944,157.744 100.552,157.216 101.4,157.216 L101.4,157.216 Z M101.56,165.936 C99.928,165.936 99.192,165.568 99.192,164.992 C99.192,164.528 99.592,164.272 100.52,164.272 L102.696,164.272 C103.592,164.272 103.896,164.528 103.896,164.944 C103.896,165.488 103.112,165.936 101.56,165.936 L101.56,165.936 Z M60.856,172.28 C58.12,172.28 56.536,173.736 56.536,175.608 C56.536,177.368 57.656,178.264 60.6,178.856 C62.344,179.208 62.904,179.544 62.904,180.12 C62.904,180.92 62.168,181.352 60.808,181.352 C59.384,181.352 58.376,181 57.544,179.624 L56.232,181.192 C57.128,182.472 58.488,183.16 60.888,183.16 C63.416,183.16 65.224,181.976 65.224,179.992 C65.224,178.232 64.152,177.352 61.304,176.824 C59.448,176.488 58.872,176.104 58.872,175.4 C58.872,174.648 59.544,174.088 60.872,174.088 C62.296,174.088 63.176,174.664 63.72,175.8 L65.24,174.312 C64.168,172.904 62.824,172.28 60.856,172.28 L60.856,172.28 Z M71.832,174.84 C70.696,174.84 69.768,175.32 69.256,176.36 L69.256,171.496 L67.064,171.496 L67.064,183 L69.256,183 L69.256,178.776 C69.256,177.176 70.168,176.568 71.096,176.568 C71.928,176.568 72.52,177.016 72.52,178.392 L72.52,183 L74.712,183 L74.712,177.752 C74.712,175.816 73.496,174.84 71.832,174.84 L71.832,174.84 Z M84.28,181.672 C83.864,181.672 83.688,181.48 83.688,181.064 L83.688,177.784 C83.688,175.8 82.28,174.84 80.056,174.84 C78.104,174.84 76.904,175.704 76.568,177.064 L78.312,177.8 C78.552,176.792 79.224,176.44 80.152,176.44 C81.016,176.44 81.512,176.984 81.512,177.832 L81.512,178.216 L79.592,178.584 C77.448,178.984 76.472,179.864 76.472,181.112 C76.472,182.456 77.432,183.16 78.952,183.16 C80.296,183.16 81.304,182.744 81.784,181.96 C82.008,182.824 82.664,183.16 83.624,183.16 C84.024,183.16 84.376,183.08 84.664,182.936 L84.824,181.608 C84.664,181.656 84.472,181.672 84.28,181.672 L84.28,181.672 Z M79.64,181.672 C79.064,181.672 78.728,181.4 78.728,180.888 C78.728,180.36 79.096,180.104 79.8,179.944 L81.512,179.56 L81.512,180.392 C81.512,181.24 80.472,181.672 79.64,181.672 L79.64,181.672 Z M90.856,174.84 C89.56,174.84 88.616,175.544 88.168,176.584 L88.088,175 L86.152,175 L86.152,186.36 L88.344,186.36 L88.344,181.688 C88.808,182.568 89.672,183.16 90.856,183.16 C92.984,183.16 94.28,181.608 94.28,178.984 C94.28,176.376 92.984,174.84 90.856,174.84 L90.856,174.84 Z M90.2,181.48 C89.128,181.48 88.424,180.696 88.344,179.352 L88.344,178.648 C88.44,177.272 89.144,176.52 90.2,176.52 C91.368,176.52 92.088,177.368 92.088,179 C92.088,180.632 91.368,181.48 90.2,181.48 L90.2,181.48 Z M103.688,178.968 C103.688,176.344 102.328,174.84 99.832,174.84 C97.256,174.84 95.8,176.376 95.8,179 C95.8,181.624 97.304,183.16 99.96,183.16 C101.768,183.16 103,182.472 103.512,181.192 L101.72,180.536 C101.496,181.176 100.888,181.528 99.96,181.528 C98.888,181.528 98.184,180.984 97.96,179.832 L103.624,179.832 C103.656,179.624 103.688,179.192 103.688,178.968 L103.688,178.968 Z M99.816,176.456 C100.824,176.456 101.496,177.096 101.672,178.296 L97.944,178.296 C98.12,177.08 98.76,176.456 99.816,176.456 L99.816,176.456 Z" id="Falling" fill="#FFFFFF" sketch:type="MSShapeGroup"></path>
            </g>
        </g>
    </g>
</svg>