<?xml version="1.0" encoding="UTF-8" standalone="no"?>
<svg width="30px" height="25px" viewBox="0 0 30 25" version="1.1" xmlns="http://www.w3.org/2000/svg" xmlns:xlink="http://www.w3.org/1999/xlink">
    <title>Twitter logo</title>
      <g transform="translate(-485.000000, -137.000000)" fill="#000000">
          <path d="M515,139.886097 C513.896192,140.375617 512.709975,140.706463 511.46494,140.855262 C512.735762,140.093493 513.711621,138.887304 514.171184,137.450126 C512.982004,138.155382 511.664765,138.667618 510.262811,138.943707 C509.14002,137.747504 507.540437,137 505.770218,137 C502.371008,137 499.615165,139.755734 499.615165,143.154724 C499.615165,143.637112 499.669703,144.10688 499.774608,144.557336 C494.659278,144.300669 490.124108,141.850324 487.088445,138.126632 C486.558652,139.035663 486.25513,140.092944 486.25513,141.220893 C486.25513,143.356194 487.341819,145.240097 488.993306,146.343795 C487.984308,146.311862 487.035334,146.035005 486.205421,145.574015 C486.204982,145.599693 486.204982,145.62548 486.204982,145.651377 C486.204982,148.633491 488.326566,151.121146 491.142214,151.686492 C490.6257,151.82717 490.081971,151.902337 489.520575,151.902337 C489.123999,151.902337 488.738396,151.863821 488.362669,151.791946 C489.145836,154.237243 491.418852,156.016679 494.112147,156.066389 C492.005706,157.717107 489.351805,158.701086 486.468232,158.701086 C485.971469,158.701086 485.48151,158.672007 485,158.615165 C487.723801,160.361462 490.959069,161.380336 494.434873,161.380336 C505.755843,161.380336 511.94656,152.001756 511.94656,143.86843 C511.94656,143.601558 511.940634,143.336113 511.928783,143.072205 C513.131241,142.204433 514.174805,141.120377 515,139.886097"></path>
      </g>
</svg>